<svg xmlns="http://www.w3.org/2000/svg" height="800" width="1200" viewBox="-6.066525 -3.749925 52.57655 22.49955"><path d="M23.7322 9.9765c-.332.114-1.2425.4046-1.2506 1.0298-.008.6177.5207.889 1.1892 1.018l2.5128.4746c.7462.1287.9889.4794 1.0178.792.0226.2409-.1037.5496-.3556.7267-.3397.2391-.906.466-2.1216.3979-1.4894-.083-1.9735-.87-1.9876-1.2714-.0127-.3538.0801-.6213.382-.9264l-.2303-.0773c-.2395.2085-.8936.5475-.8936 1.2086-.0003 1.1917 1.4867 1.688 2.7796 1.6485 1.1878-.0363 2.0852-.5108 2.4095-.7962.3238-.2857.698-.7398.698-1.3571 0-.9571-.9591-1.2584-1.4742-1.3557l-2.243-.3973c-.2701-.0617-.6332-.1545-.6332-.4554 0-.3394.5874-.5147 1.063-.6495.5171-.1467 1.3405-.3538 1.9992-.913.4053-.344.6279-.853.6279-1.3783 0-1.1094-1.07-2.0083-2.3904-2.0083-1.3201 0-2.3904.8989-2.3904 2.0083 0 1.1092.939 2.1227 2.3195 1.9809-.2226.0776-.7162.1944-1.028.3006m-.211-2.2423c0-1.0107.5165-1.7036 1.3099-1.7036.7934 0 1.3098.6929 1.3098 1.7036 0 1.011-.5164 1.7036-1.3098 1.7036-.7934 0-1.3099-.6925-1.3099-1.7036m-4.7415 3.0618c-.5711 0-.957-.3795-.9726-.958-.0187-.7007.5905-1.3981 2.153-1.4792v1.865c-.2325.3118-.6272.5725-1.1804.5725m3.108-.2808c-.1073.1634-.3433.3782-.567.3062-.1421-.0459-.2624-.1693-.2624-.5309V7.4425c0-1.1885-.6713-1.729-1.6595-1.729-.9877 0-1.8383.7292-2.1318 1.4083l.1295.1429c.2603-.3062.7133-.9497 1.5836-.926.7726.0211.9825.5538.98 1.101V8.13c-.3888-.0155-1.162.0497-1.8288.2565-.6946.2166-1.444.7183-1.4587 1.5138-.0155.8177.5327 1.4644 1.6361 1.4824.8792.0145 1.4203-.508 1.6743-.8746.0928.567.4604.8742.9208.8742.4865 0 .852-.2674 1.0922-.682zm7.0841-1.969c0 1.465.6583 2.4673 1.742 2.4673 1.083 0 1.7417-1.0022 1.7417-2.4673 0-1.4661-.6357-2.4684-1.7417-2.4684-1.0837 0-1.742 1.0023-1.742 2.4684m-1.1687 0c0-1.6224 1.3031-2.853 2.9107-2.853s2.9108 1.2306 2.9108 2.853c0 1.6217-1.3032 2.8519-2.9108 2.8519-1.6076 0-2.9107-1.2302-2.9107-2.8519m10.6418 1.5875c0 .9363-.4135.8545-.8975.8852l-.003.2614h2.8991l-.003-.2614c-.4836-.0307-.897.0512-.897-.8852 0 0 .0006-2.8409.001-2.8511.0006-1.0908-.888-1.5812-1.8095-1.5702-.6992.008-1.4132.3778-1.9064.9006-.0007-.5394-.0007-.9218-.0007-.925l-2.0062.5278v.2043c.8435 0 .9158.123.9362.4938.0007.0102.0007 3.2195.0007 3.2195 0 .9366-.4134.854-.897.8855l-.004.2614h2.8737l-.004-.2614c-.4837-.0314-.8965.0512-.8965-.8855 0 0-.002-1.8782-.003-3.193.5049-.4974 1.0323-.6227 1.464-.6311.5144-.0102 1.1674.2265 1.1586 1.0495-.0004.0106-.006 2.775-.006 2.775M14.1918 6.705c-.0004-.5599-.0008-1.0036-.0004-1.0068l-2.0062.5274v.2042c.8438 0 .9158.1235.9366.4943.0003.01 0 3.2152 0 3.2152 0 .9366-.4131.8537-.8968.8848l-.004.2614h2.9566l-.004-.2614c-.5535-.0353-.98.056-.98-.8848 0 0-.001-1.87-.002-3.1835.8238-.6586 1.8641-.3044 2.231.102l.4685-1.1219c-1.1144-.5961-2.1093.0822-2.6998.7691m-10.879 4.224c-.5137.0495-1.008-.1833-1.3043-.4222-.0003-1.2488-.0014-2.6437-.0018-3.6082.3038-.2632.634-.4904 1.2633-.514.6548-.0243 1.6119.4262 1.614 2.2003.0025 1.792-.9592 2.2853-1.5713 2.3442m.3535-5.2215c-.6604.053-1.282.465-1.6595.8315v-.8403L0 6.2262v.2043c.8438 0 .9155.1238.9363.4942.0007.0102.0003 6.452.0003 6.452 0 .9366-.413.854-.8967.885l-.0035.2611h2.917l.0012-.261c-.5581-.0208-.9451.0515-.9451-.8851 0 0-.0007-1.1226-.0011-2.509.3775.2752.8629.531 1.432.5221.5062-.008 1.152-.158 1.6918-.6586.5031-.4667.9-1.2196.901-2.201.0025-2.0719-1.3204-2.9058-2.3675-2.8226m4.987 5.0789c-.5712 0-.9571-.38-.9726-.9585-.0187-.7002.5905-1.398 2.153-1.4788v1.8647c-.2325.3118-.6273.5729-1.1804.5729m3.108-.2808c-.1073.163-.3433.3781-.567.3058-.1421-.0455-.2624-.169-.2624-.5306V7.4326c0-1.1885-.6714-1.729-1.6595-1.729-.9878 0-1.8383.7292-2.1318 1.4086l.129.143c.2608-.3066.7138-.9501 1.584-.9261.7726.0212.9826.5535.98 1.101v.6904c-.3887-.016-1.162.0494-1.8287.2568-.6946.2159-1.444.7183-1.4591 1.513-.0152.8182.533 1.4652 1.6365 1.4824.8792.0148 1.4207-.5076 1.6747-.8741.0924.5665.46.8741.9204.8741.4864 0 .8516-.2677 1.0922-.6822zM29.1883 0s-1.2682 1.3268-1.372 3.198c0 0 1.3689.3259 2.7144-.1623l.0413-.149S27.554 3.32 29.2737.0636z" fill="#242222"/><path d="M27.0242 6.1273s1.281-1.5526 1.359-3.3221c0 0-1.2292-.4325-2.4402.0226l-.04.1496c.5744-.1002 2.6886.0822 1.0302 3.0797z" fill="#75c92b"/></svg>